<svg xmlns="http://www.w3.org/2000/svg" viewBox="0 0 1025.44 211"><defs><style>.cls-1{fill:#2271da;}.cls-2{fill:#fff;}</style></defs><g id="Capa_2" data-name="Capa 2"><g id="Capa_1-2" data-name="Capa 1"><g id="Capa_2-2" data-name="Capa 2"><circle class="cls-1" cx="105.5" cy="105.5" r="105.5"/><rect class="cls-2" x="25.4" y="134.79" width="71.98" height="28.23" rx="7.06"/><rect class="cls-2" x="69.16" y="91.03" width="71.98" height="28.23" rx="7.06"/><rect class="cls-2" x="112.91" y="47.28" width="71.98" height="28.23" rx="7.06"/><rect class="cls-2" x="91.03" y="69.16" width="71.98" height="28.23" rx="7.06" transform="translate(43.75 210.29) rotate(-90)"/><rect class="cls-2" x="47.28" y="112.91" width="71.98" height="28.23" rx="7.06" transform="translate(-43.75 210.29) rotate(-90)"/></g><path class="cls-2" d="M326.25,126.9H289.5l-7.24,17H268.19l33.07-73.5H314.7l33.18,73.5H333.6Zm-4.51-10.71L307.88,84.06l-13.76,32.13Z"/><path class="cls-2" d="M357.23,70.41h13.65v73.5H357.23Z"/><path class="cls-2" d="M385.47,107.16c0-21.73,16.8-37.8,39.59-37.8s39.58,16,39.58,37.8S447.84,145,425.06,145,385.47,128.89,385.47,107.16Zm65.41,0c0-15-11-25.83-25.82-25.83s-25.83,10.82-25.83,25.83,11,25.83,25.83,25.83S450.88,122.18,450.88,107.16Z"/><path class="cls-2" d="M555.78,126.9H519l-7.25,17H497.72l33.07-73.5h13.44l33.18,73.5H563.13Zm-4.52-10.71L537.4,84.06l-13.75,32.13Z"/><path class="cls-2" d="M640.72,111.78v32.13H627.6V113.46c0-10-4.94-14.8-13.34-14.8-9.34,0-15.64,5.67-15.64,16.9v28.35H585.49V87.84H598v7.25c4.3-5.15,11.13-7.88,19.32-7.88C630.75,87.21,640.72,94.88,640.72,111.78Z"/><path class="cls-2" d="M691.12,140.86c-3.15,2.52-7.87,3.78-12.6,3.78-12.28,0-19.32-6.51-19.32-18.89v-27H650V88.26h9.24V75.45h13.13V88.26h15v10.5h-15v26.67c0,5.46,2.73,8.4,7.77,8.4a11.84,11.84,0,0,0,7.35-2.31Z"/><path class="cls-2" d="M748.87,111v32.87H736.48v-6.83c-3.15,4.83-9.24,7.56-17.64,7.56-12.81,0-20.89-7-20.89-16.8,0-9.34,6.3-16.69,23.31-16.69h14.49v-.84c0-7.66-4.62-12.18-14-12.18-6.3,0-12.81,2.1-17,5.57l-5.14-9.56c6-4.62,14.7-6.93,23.73-6.93C739.53,87.21,748.87,94.88,748.87,111Zm-13.12,15.34v-6.51H722.2c-8.92,0-11.34,3.35-11.34,7.45,0,4.72,4,7.77,10.71,7.77C728,135.09,733.54,132.15,735.75,126.38Z"/><path class="cls-2" d="M859.43,111.78v32.13H846.31V113.46c0-10-4.62-14.8-12.6-14.8-8.61,0-14.59,5.67-14.59,16.8v28.45H806V113.46c0-10-4.62-14.8-12.6-14.8-8.71,0-14.59,5.67-14.59,16.8v28.45H765.67V87.84h12.5V95c4.2-5,10.71-7.77,18.37-7.77,8.19,0,15,3.05,18.9,9.35,4.52-5.78,12.08-9.35,21-9.35C850,87.21,859.43,94.88,859.43,111.78Z"/><path class="cls-2" d="M874.45,70.73c0-4.41,3.57-7.88,8.4-7.88s8.4,3.26,8.4,7.56a8.06,8.06,0,0,1-8.4,8.19C878,78.6,874.45,75.14,874.45,70.73Zm1.79,17.11h13.12v56.07H876.24Z"/><path class="cls-2" d="M961.81,111.78v32.13H948.68V113.46c0-10-4.93-14.8-13.33-14.8-9.34,0-15.64,5.67-15.64,16.9v28.35H906.58V87.84h12.5v7.25c4.3-5.15,11.13-7.88,19.32-7.88C951.83,87.21,961.81,94.88,961.81,111.78Z"/><path class="cls-2" d="M1025.44,111v32.87h-12.39v-6.83c-3.15,4.83-9.24,7.56-17.64,7.56-12.81,0-20.89-7-20.89-16.8,0-9.34,6.3-16.69,23.31-16.69h14.48v-.84c0-7.66-4.61-12.18-14-12.18-6.3,0-12.81,2.1-17,5.57l-5.14-9.56c6-4.62,14.7-6.93,23.72-6.93C1016.09,87.21,1025.44,94.88,1025.44,111Zm-13.13,15.34v-6.51H998.77c-8.92,0-11.34,3.35-11.34,7.45,0,4.72,4,7.77,10.71,7.77C1004.54,135.09,1010.11,132.15,1012.31,126.38Z"/></g></g></svg>