<svg xmlns="http://www.w3.org/2000/svg" viewBox="0 0 1142.66 211"><defs><style>.cls-1{fill:#2271da;}.cls-2{fill:#fff;}.cls-3{fill:#318383;}</style></defs><g id="Capa_2" data-name="Capa 2"><g id="Capa_1-2" data-name="Capa 1"><g id="Capa_2-2" data-name="Capa 2"><circle class="cls-1" cx="105.5" cy="105.5" r="105.5"/><rect class="cls-2" x="25.4" y="134.79" width="71.98" height="28.23" rx="7.06"/><rect class="cls-2" x="69.16" y="91.03" width="71.98" height="28.23" rx="7.06"/><rect class="cls-2" x="112.91" y="47.28" width="71.98" height="28.23" rx="7.06"/><rect class="cls-2" x="91.03" y="69.16" width="71.98" height="28.23" rx="7.06" transform="translate(43.75 210.29) rotate(-90)"/><rect class="cls-2" x="47.28" y="112.91" width="71.98" height="28.23" rx="7.06" transform="translate(-43.75 210.29) rotate(-90)"/></g><path class="cls-3" d="M295.19,134.73H254.53l-7.75,18.77H226l39-87.57h20l39.16,87.57H302.94Zm-6.38-15.38L274.92,85.82,261,119.35Z"/><path class="cls-3" d="M333.34,65.93H353.6V153.5H333.34Z"/><path class="cls-3" d="M368.86,109.72c0-26,20.27-45.29,47.91-45.29s47.91,19.14,47.91,45.29S444.29,155,416.77,155,368.86,135.74,368.86,109.72Zm75.31,0c0-16.64-11.76-28-27.4-28s-27.39,11.38-27.39,28,11.75,28,27.39,28S444.17,126.35,444.17,109.72Z"/><path class="cls-3" d="M573,134.73H532.35L524.6,153.5H503.83l39-87.57h20L602,153.5H580.76Zm-6.38-15.38L552.74,85.82l-13.88,33.53Z"/><path class="cls-3" d="M678.58,115V153.5H659.07V118c0-10.88-5-15.88-13.64-15.88-9.38,0-16.13,5.75-16.13,18.13V153.5H609.78V86.2h18.64v7.88c5.25-5.75,13.13-8.88,22.27-8.88C666.57,85.2,678.58,94.46,678.58,115Z"/><path class="cls-3" d="M739.62,150.25c-4,2.87-9.88,4.25-15.88,4.25-15.89,0-25.15-8.13-25.15-24.14V102.71H688.21v-15h10.38V71.31h19.52V87.7h16.76v15H718.11v27.4c0,5.75,3.13,8.88,8.38,8.88a13.17,13.17,0,0,0,7.88-2.5Z"/><path class="cls-3" d="M810.18,115.1v38.4H791.91v-8.38c-3.63,6.13-10.63,9.38-20.51,9.38-15.76,0-25.15-8.76-25.15-20.39,0-11.88,8.39-20.14,28.9-20.14h15.51c0-8.38-5-13.26-15.51-13.26-7.13,0-14.51,2.38-19.39,6.25l-7-13.63c7.38-5.25,18.26-8.13,29-8.13C798.29,85.2,810.18,94.71,810.18,115.1Zm-19.52,17.13v-6.88H777.28c-9.13,0-12,3.38-12,7.88,0,4.88,4.13,8.13,11,8.13C782.78,141.36,788.41,138.36,790.66,132.23Z"/><path class="cls-3" d="M941.52,115V153.5H922V118c0-10.88-4.88-15.88-12.76-15.88-8.76,0-14.89,5.63-14.89,17.63V153.5H874.85V118c0-10.88-4.63-15.88-12.76-15.88-8.63,0-14.76,5.63-14.76,17.63V153.5H827.81V86.2h18.64V94c5-5.76,12.51-8.76,21.14-8.76,9.38,0,17.39,3.63,22.14,11,5.38-6.88,14.14-11,24.27-11C930,85.2,941.52,94.46,941.52,115Z"/><path class="cls-3" d="M956.65,65.93c0-6.12,4.88-10.88,12.14-10.88s12.13,4.51,12.13,10.51c0,6.5-4.88,11.26-12.13,11.26S956.65,72.06,956.65,65.93ZM959,86.2h19.52v67.3H959Z"/><path class="cls-3" d="M1065.48,115V153.5H1046V118c0-10.88-5-15.88-13.64-15.88-9.38,0-16.13,5.75-16.13,18.13V153.5H996.68V86.2h18.64v7.88c5.26-5.75,13.14-8.88,22.27-8.88C1053.47,85.2,1065.48,94.46,1065.48,115Z"/><path class="cls-3" d="M1142.66,115.1v38.4H1124.4v-8.38c-3.63,6.13-10.63,9.38-20.52,9.38-15.76,0-25.14-8.76-25.14-20.39,0-11.88,8.38-20.14,28.9-20.14h15.51c0-8.38-5-13.26-15.51-13.26-7.13,0-14.51,2.38-19.39,6.25l-7-13.63c7.38-5.25,18.27-8.13,29-8.13C1130.78,85.2,1142.66,94.71,1142.66,115.1Zm-19.51,17.13v-6.88h-13.38c-9.14,0-12,3.38-12,7.88,0,4.88,4.12,8.13,11,8.13C1115.27,141.36,1120.9,138.36,1123.15,132.23Z"/></g></g></svg>