<svg xmlns="http://www.w3.org/2000/svg" viewBox="0 0 787.35 211"><defs><style>.cls-1{fill:#2271DA;}.cls-2{fill:#fff;}</style></defs><g id="Capa_2" data-name="Capa 2"><g id="Capa_1-2" data-name="Capa 1"><g id="Capa_2-2" data-name="Capa 2"><circle class="cls-1" cx="105.5" cy="105.5" r="105.5"/><rect class="cls-2" x="25.4" y="134.79" width="71.98" height="28.23" rx="7.06"/><rect class="cls-2" x="69.16" y="91.03" width="71.98" height="28.23" rx="7.06"/><rect class="cls-2" x="112.91" y="47.28" width="71.98" height="28.23" rx="7.06"/><rect class="cls-2" x="91.03" y="69.16" width="71.98" height="28.23" rx="7.06" transform="translate(43.75 210.29) rotate(-90)"/><rect class="cls-2" x="47.28" y="112.91" width="71.98" height="28.23" rx="7.06" transform="translate(-43.75 210.29) rotate(-90)"/></g><path class="cls-2" d="M239.36,137.55l6.87-15.25a51.46,51.46,0,0,0,28.88,9.13c12,0,16.87-4,16.87-9.38,0-16.37-50.87-5.12-50.87-37.62,0-14.88,12-27.25,36.87-27.25,11,0,22.25,2.62,30.38,7.75L302.11,80.3a49.48,49.48,0,0,0-24.25-6.87c-12,0-16.63,4.5-16.63,10,0,16.12,50.88,5,50.88,37.12,0,14.63-12.13,27.13-37.13,27.13C261.11,147.68,247.11,143.55,239.36,137.55Z"/><path class="cls-2" d="M383.6,127.43H343l-7.75,18.75H314.48l39-87.5h20l39.12,87.5H391.35Zm-6.37-15.38-13.88-33.5-13.87,33.5Z"/><path class="cls-2" d="M421.73,58.68h39.75c28.62,0,48.25,17.25,48.25,43.75s-19.63,43.75-48.25,43.75H421.73Zm38.75,70.87c17.37,0,28.75-10.37,28.75-27.12S477.85,75.3,460.48,75.3H442v54.25Z"/><path class="cls-2" d="M618,127.43H577.35l-7.75,18.75H548.85l39-87.5h20L647,146.18H625.73Zm-6.38-15.38-13.87-33.5-13.88,33.5Z"/><path class="cls-2" d="M656.1,58.68h20.25v87.5H656.1Z"/><path class="cls-2" d="M691.6,102.43c0-26,20.25-45.25,47.87-45.25s47.88,19.12,47.88,45.25S767,147.68,739.47,147.68,691.6,128.43,691.6,102.43Zm75.25,0c0-16.63-11.75-28-27.38-28s-27.37,11.37-27.37,28,11.75,28,27.37,28S766.85,119.05,766.85,102.43Z"/></g></g></svg>